# xmcd CD database file
#
# Track frame offsets:
#	150
#	17620
#	35325
#	56620
#	70942
#	87215
#	108120
#	126350
#	141592
#	157682
#	171077
#	185371
#
# Disc length: 2687 seconds
#
# Revision: 3
# Processed by: cddbd v1.5.2PL0 Copyright (c) Steve Scherf et al.
# Submitted via: CDex 1.70beta2
#
DISCID=980a7d0c
DTITLE=David John and the Comstock Cowboys - Cowboys, Old Fiddles, and Wine
DYEAR=2007
DGENRE=Country
TTITLE0=You Can't Keep an Old Cowboy Down
TTITLE1=Tomb of the Unknown Cowboy
TTITLE2=River of No Return
TTITLE3=Bury Me Not on the Lone Prarie
TTITLE4=Waltz of Nevada
TTITLE5=Tying Knots in the Devil's Tail
TTITLE6=My Rifle, My Pony and Me
TTITLE7=The Days of '49
TTITLE8=Julia Bulette
TTITLE9=Tumbling Tumbleweeds
TTITLE10=Return to the Red River Valley
TTITLE11=A Little Bit of Texas in My Bow
EXTD=YEAR: 2007
EXTT0=
EXTT1=
EXTT2=
EXTT3=
EXTT4=
EXTT5=
EXTT6=
EXTT7=
EXTT8=
EXTT9=
EXTT10=
EXTT11=
PLAYORDER=
